# xmcd CD database file
#
# Track frame offsets:
#	150
#	20246
#	40370
#	59708
#	76245
#	94455
#	111852
#	128856
#	144303
#	166308
#	185243
#	204645
#	223507
#	241888
#	260784
#	280807
#	301751
#	321235
#
# Disc length: 4562 seconds
#
# Revision: 0
# Processed by: cddbd v1.5.1PL2 Copyright (c) Steve Scherf et al.
# Submitted via: CDex 1.70beta2
#
DISCID=1711d012
DTITLE=Various Artist - Rumba Completa CD 3: Merengue
DYEAR=2006
DGENRE=Merengue
TTITLE0=Kinito Méndez - Obligao
TTITLE1=Eddy Herrera - Amores De Loco
TTITLE2=Calle Ciega - Si Tú No Estás
TTITLE3=Juan Luis Guerra - Para Ti
TTITLE4=Elvis Crespo - Como Yo
TTITLE5=Sergio Vargas - Agua Con Sal
TTITLE6=La Mákina - Mueve La Colita
TTITLE7=Two Swing - Pégale Al Beat
TTITLE8=Hijos De La C - Comenzó La Rumba
TTITLE9=Rikarena - La Mojadita
TTITLE10=Olga Tañón - Bandolero
TTITLE11=Los Sabrosos - No Entiendo
TTITLE12=LimiT-21 -  A La Nena Le Gusta
TTITLE13=Manny Manuel - Culpable O No
TTITLE14=Zacarrías Ferreira - Te Saqué De La Mente
TTITLE15=Eddy Herrera and Liz - Dormir Juntitos
TTITLE16=Papi Sánchez - Enamórame
TTITLE17=Grupo Manía - Teléfono
EXTD=YEAR: 2006
EXTT0=
EXTT1=
EXTT2=
EXTT3=
EXTT4=
EXTT5=
EXTT6=
EXTT7=
EXTT8=
EXTT9=
EXTT10=
EXTT11=
EXTT12=
EXTT13=
EXTT14=
EXTT15=
EXTT16=
EXTT17=
PLAYORDER=
